<svg width="16" height="16" viewBox="-2 -2 20 20" version="1.1" xmlns="http://www.w3.org/2000/svg">
  <path style="fill: currentColor;" d="M3.5,12C2.6716,12 2,11.328 2,10.5L2,4.5C2,3.6716 2.6716,3 3.5,3L10.5,3C11.328,3 12,3.6716 12,4.5L12,5L13,5C14.105,5 15,5.8954 15,7C15,8.1046 14.105,9 13,9L12,9L12,10.5C12,11.328 11.328,12 10.5,12L3.5,12ZM13,6L12,6L12,8L13,8C13.552,8 14,7.5523 14,7C14,6.4477 13.552,6 13,6ZM4,13L10,13C10.552,13 11,13.448 11,14L3,14C3,13.448 3.4477,13 4,13ZM5,4.5L5,8L6,8L6,4.5L5,4.5ZM8,4.5L8,8L9,8L9,4.5L8,4.5Z" />
</svg>
